<?xml version="1.0" encoding="utf-8"?>
<!-- Generator: Adobe Illustrator 24.0.1, SVG Export Plug-In . SVG Version: 6.00 Build 0)  -->
<svg version="1.1" id="Calque_1" xmlns="http://www.w3.org/2000/svg" xmlns:xlink="http://www.w3.org/1999/xlink" x="0px" y="0px"
	 viewBox="0 0 137 60" style="enable-background:new 0 0 137 60;" xml:space="preserve">
<style type="text/css">
	.st0{fill:#222222;}
</style>
<g id="Dior_Logo">
	<path class="st0" d="M11.4,29.5c0-7.1,0-14.3,0-21.4c0-0.3,0-0.7-0.1-1c-0.2-0.9-0.7-1.6-1.5-2S8.1,4.5,7.2,4.5
		c-1.3-0.2-2.6-0.2-4-0.4C3,4.1,2.8,4.1,2.6,4C2.4,4,2.2,3.8,2.3,3.6c0.1-0.2,0.2-0.4,0.4-0.4c0.2-0.1,0.4-0.1,0.6-0.1
		c9.2,0,18.4,0,27.7,0c4.4,0,8.6,0.6,12.8,2c4,1.3,7.5,3.4,10.4,6.4c3.1,3.3,5.1,7.2,6.1,11.6c0.7,2.9,1,5.9,0.8,8.9
		c-0.4,6.8-2.8,12.8-7.7,17.7c-3.3,3.3-7.3,5.2-11.8,6.2c-2,0.4-4.1,0.6-6.1,0.6c-11.2,0-22.4,0-33.6,0c-0.3,0-0.5,0-0.8-0.1
		c-0.2,0-0.4-0.2-0.4-0.4c-0.1-0.3,0.1-0.4,0.3-0.5c0.3-0.1,0.5-0.1,0.8-0.1c1.9-0.1,3.9-0.2,5.8-0.3c0.5,0,1-0.1,1.5-0.2
		c1.4-0.3,2.1-1.2,2.2-2.7c0.1-0.7,0.1-1.4,0.1-2.1C11.4,43.2,11.4,36.3,11.4,29.5z M20.5,30c0,7.8,0,15.6,0,23.4c0,0.2,0,0.4,0,0.6
		c0.1,0.5,0.3,0.7,0.8,0.8c0.3,0,0.5,0,0.8,0c2.5,0,5,0,7.5-0.1c2.3,0,4.5-0.2,6.8-0.6c2.8-0.5,5.4-1.5,7.5-3.5c2-1.9,3.7-4,4.8-6.5
		c2.7-5.8,3.7-11.8,2.9-18.2c-0.5-3.8-1.6-7.3-3.5-10.6C46,11.5,43,8.6,39,6.9c-3.1-1.3-6.3-1.9-9.7-2c-2.5-0.1-4.9,0-7.4-0.1
		c-0.2,0-0.3,0-0.5,0c-0.6,0.2-0.8,0.5-0.9,1c0,0.3,0,0.6,0,0.8C20.5,14.4,20.5,22.2,20.5,30z"/>
	<path class="st0" d="M96,56.9c-1.9,0-3.9-0.3-5.9-1.2c-2.6-1.1-4.5-3-5.6-5.6c-1.5-3.5-1.8-7.2-0.4-10.8c1.8-4.7,5.3-7.6,10.4-8.4
		c2.7-0.4,5.4-0.3,8,0.5c4.1,1.4,6.7,4.3,7.7,8.4c0.6,2.4,0.8,4.8,0.2,7.3c-0.8,3.3-2.8,5.7-5.6,7.5C102.2,56.2,99.3,56.9,96,56.9z
		 M104.9,44.6c0-1.9-0.2-3.8-0.7-5.7s-1.4-3.7-2.9-5c-2.4-2.2-6.3-2.5-8.8-0.6c-1.5,1.1-2.4,2.7-2.9,4.4c-1.1,3.9-0.9,7.8,0.6,11.5
		c0.7,1.8,1.7,3.3,3.1,4.5s3,1.7,4.8,1.4c2.7-0.4,4.5-2,5.6-4.4C104.7,48.9,104.9,46.8,104.9,44.6z"/>
	<path class="st0" d="M125.3,38.3c0.4-0.6,0.7-1.2,1.1-1.7c0.8-1.1,1.6-2.3,2.5-3.3s2-1.7,3.4-1.9c1.7-0.2,3.4,0.7,3.9,2.1
		c0.3,0.9,0.3,1.7-0.1,2.6c-0.2,0.5-0.6,0.9-1.2,1.1c-0.6,0.2-1.2,0.2-1.7-0.3c-0.3-0.3-0.6-0.7-0.9-1c-0.2-0.3-0.4-0.5-0.7-0.8
		c-0.4-0.4-0.9-0.5-1.4-0.2c-2.3,1.3-4.1,3.1-4.8,5.7c-0.1,0.5-0.2,1.1-0.2,1.6c0,3.6,0,7.3,0,10.9c0,1.2,0.7,2.1,1.9,2.2
		c0.7,0.1,1.4,0.1,2.1,0.2c0.3,0,0.5,0.1,0.8,0.1c0.1,0,0.2,0.2,0.2,0.3s-0.2,0.2-0.3,0.2s-0.2,0-0.4,0c-4.7,0-9.4,0-14.1,0
		c-0.2,0-0.3,0-0.5,0c-0.1-0.1-0.3-0.2-0.3-0.3s0.2-0.2,0.3-0.3c0.3-0.1,0.7-0.1,1-0.1c0.5,0,1-0.1,1.5-0.1c1.4-0.2,2.1-0.9,2.2-2.4
		c0.1-1.6,0-3.2,0-4.8c0-3.6,0-7.1,0-10.7c0-0.3,0-0.7,0-1c-0.1-0.7-0.5-1.1-1.2-1.1c-0.4,0-0.9,0.1-1.3,0.2
		c-0.6,0.1-1.1,0.3-1.7,0.5c-0.1,0-0.2,0.1-0.3,0c-0.1,0-0.3-0.1-0.3-0.2c0-0.1,0-0.3,0.1-0.4c0.3-0.2,0.5-0.3,0.8-0.4
		c1.8-0.7,3.7-1.4,5.5-2.1c0.7-0.3,1.3-0.7,2-1c0.3-0.2,0.6-0.3,1-0.4s0.8,0.1,0.9,0.5c0,0.2,0.1,0.5,0.1,0.7c0,1.7,0,3.4,0,5.2
		C125.3,38.1,125.3,38.1,125.3,38.3z"/>
	<path class="st0" d="M75,43c0,3.2,0,6.5,0,9.7c0,0.3,0,0.6,0,0.9c0.1,0.8,0.5,1.4,1.3,1.6c0.7,0.2,1.5,0.3,2.3,0.4
		c0.3,0,0.7,0,1,0.1c0.2,0,0.4,0.1,0.4,0.4c0,0.2-0.2,0.3-0.4,0.3c-0.1,0-0.2,0-0.3,0c-4.6,0-9.3,0-13.9,0c-0.1,0-0.3,0-0.4,0
		c-0.1-0.1-0.3-0.2-0.3-0.3s0.2-0.3,0.3-0.3c0.2-0.1,0.5,0,0.7-0.1c0.6,0,1.3,0,1.9-0.1c1.3-0.2,1.9-0.8,2-2.2c0-0.3,0-0.7,0-1
		c0-5,0-10,0-15c0-0.1,0-0.3,0-0.4c-0.1-1-0.8-1.6-1.8-1.3c-0.8,0.2-1.6,0.4-2.3,0.6c-0.1,0-0.3,0.1-0.4,0c-0.1,0-0.3-0.1-0.4-0.2
		c0-0.1,0.1-0.3,0.2-0.4c0.3-0.2,0.6-0.3,0.9-0.3c2.4-0.6,4.7-1.5,6.8-2.7c0.4-0.3,0.9-0.5,1.4-0.7c0.7-0.3,1.1,0,1.1,0.7s0,1.3,0,2
		C75,37.3,75,40.2,75,43z"/>
	<path class="st0" d="M75.5,18.9c0,1.9-1.6,3.5-3.5,3.5s-3.5-1.6-3.5-3.5s1.6-3.5,3.5-3.5S75.5,17,75.5,18.9z"/>
</g>
</svg>
