<?xml version="1.0" encoding="utf-8"?>
<!-- Generator: Adobe Illustrator 24.0.1, SVG Export Plug-In . SVG Version: 6.00 Build 0)  -->
<svg version="1.1" id="Calque_1" xmlns="http://www.w3.org/2000/svg" xmlns:xlink="http://www.w3.org/1999/xlink" x="0px" y="0px"
	 viewBox="0 0 137 60" style="enable-background:new 0 0 137 60;" xml:space="preserve">
<style type="text/css">
	.st0{fill:#222222;}
</style>
<g id="ELLE_logo">
	<path class="st0" d="M2,52.3c0.8-0.9,1.9-0.3,2.8-0.6c0-14.5,0-28.9,0-43.6C3.8,8.1,2.9,8,1.9,8c0-0.2,0-0.3,0-0.4
		c5.9,0,11.8,0,17.8,0c0,3.6,0,7.3,0,11c-0.1,0-0.2,0-0.4,0.1c-0.1-0.4-0.1-0.8-0.2-1.2c-0.4-1.9-0.6-3.9-1.3-5.7
		c-1.3-3-4.1-4.2-7.6-3.6c0,0.4-0.1,0.6-0.1,1c0,6.3,0,12.5,0,18.8c0,1.3,0.2,1.4,1.4,1c1.3-0.4,2.2-1.4,2.6-2.7
		c0.4-1.5,0.6-3.1,0.9-4.7c0.1-0.3,0.1-0.5,0.2-0.8c0.1,0,0.2,0,0.3,0c0,5.7,0,11.3,0,17c-0.1,0-0.1,0.1-0.2,0.1
		c-0.1-0.3-0.2-0.4-0.3-0.7c-0.3-1.5-0.4-3.1-0.9-4.6c-0.4-1.7-2.2-2.8-4-2.6c0,7.3,0,14.5,0,21.7c3.5,0.7,6.8-0.9,7.9-4.2
		c0.6-2,0.9-4,1.3-6c0-0.2,0.1-0.4,0.3-0.4c0,3.8,0,7.5,0,11.4C13.8,52.3,7.9,52.3,2,52.3z"/>
	<path class="st0" d="M134.9,40.9c0,3.8,0,7.5,0,11.3c-5.9,0-11.9,0-17.8,0c0-0.1,0-0.3,0-0.4c0.9,0,1.9,0,2.9,0
		c0-14.7,0-29.2,0-43.8c-1,0-1.9,0-2.8,0c0-0.1,0-0.3,0-0.4c0.3-0.1,0.5-0.2,0.8-0.2c5.4,0,10.8,0,16.2,0c0.5,0,0.9,0.1,0.9,0.8
		c0,3.3,0,6.6,0,10.1c0,0.1-0.1,0.2-0.1,0.3c-0.1,0-0.2,0-0.3,0.1c-0.1-0.6-0.1-1.3-0.2-1.9c-0.3-2.3-0.8-4.7-2.4-6.6
		c-1.6-1.9-3.8-2.2-6.1-2.1c-0.2,0-0.5,0.6-0.5,1c0,3.3,0,6.6,0,9.9c0,3.1,0,6.1,0,9.2c0,1,0.4,1.2,1.3,0.9c1.9-0.6,2.8-2.1,3.1-3.9
		c0.3-1.2,0.4-2.3,0.4-3.5c0-0.3,0.1-0.6,0.2-0.9c0.1,0,0.2,0,0.3,0c0,5.7,0,11.2,0,16.9c-0.1,0-0.2,0-0.3,0.1
		c-0.1-0.4-0.2-0.8-0.3-1.2c-0.4-1.6-0.6-3.2-1.2-4.8c-0.4-1.4-2.1-2.2-3.8-2c0,0.4,0,0.7,0,1.1c0,6.5,0,13,0,19.5
		c0,1,0.3,1.3,1.3,1.3c4.1,0.2,6.6-2.6,7.4-6.1c0.4-1.5,0.5-3.1,0.8-4.8C134.8,40.9,134.9,40.9,134.9,40.9z"/>
	<path class="st0" d="M60.6,40.7c0,3.9,0,7.7,0,11.6c-6.1,0-12.2,0-18.2,0c0-0.1,0-0.3,0-0.4c1,0,2,0,3.1,0c0-14.7,0-29.2,0-43.8
		c-1.1,0-2.1,0-3.1,0c0-0.1-0.1-0.2-0.1-0.3c0.2-0.1,0.4-0.3,0.5-0.3c3.6,0,7.2,0,10.8,0c0.2,0,0.4,0.2,0.5,0.3c0,0.1,0,0.2-0.1,0.3
		c-1,0-2,0-3.1,0c0,14.6,0,29.1,0,43.7c3.6,0.9,6.9-1,8.1-4.9c0.5-1.7,0.7-3.6,1-5.4c0.1-0.3,0.1-0.4,0.2-0.7
		C60.4,40.7,60.5,40.7,60.6,40.7z"/>
	<path class="st0" d="M97.8,40.7c0,3.9,0,7.7,0,11.8c-6.1,0-12.2,0-18.2,0c0-0.2,0-0.4,0-0.5c1,0,2,0,3.1,0c0-0.5,0.1-0.9,0.1-1.3
		c0-13.7,0-27.5,0-41.2c0-1.1-0.4-1.3-1.3-1.3c-0.6,0.1-1.3,0-1.9-0.2c0.9-0.5,11-0.5,11.7,0.2c-0.7,0-1.5,0-2.2,0s-0.9,0.3-0.9,0.9
		c0,14.1,0,28.2,0,42.3c0,0.1,0,0.2,0.1,0.3c3.2,0.7,6-0.3,7.5-3.1c1.2-2.1,1.6-4.4,1.7-6.7c0-0.4,0.1-0.8,0.2-1.2
		C97.6,40.6,97.7,40.7,97.8,40.7z"/>
</g>
</svg>
