<?xml version="1.0" encoding="utf-8"?>
<!-- Generator: Adobe Illustrator 24.0.1, SVG Export Plug-In . SVG Version: 6.00 Build 0)  -->
<svg version="1.1" id="Calque_1" xmlns="http://www.w3.org/2000/svg" xmlns:xlink="http://www.w3.org/1999/xlink" x="0px" y="0px"
	 viewBox="0 0 137 60" style="enable-background:new 0 0 137 60;" xml:space="preserve">
<style type="text/css">
	.st0{fill:#222222;}
</style>
<g id="Forbes_logo">
	<path class="st0" d="M77.7,12.5c0,3.8,0,7.5,0,11.3c0.2-0.1,0.3-0.1,0.5-0.2c2.4-1.2,4.9-1.5,7.4-0.8c2.9,0.8,4.7,2.9,5.8,5.6
		c1,2.3,1.2,4.7,1,7.2c-0.2,2-0.6,4-1.6,5.8c-1.7,3.3-4.5,5.1-8.1,5.8c-2.2,0.4-4.3,0.4-6.5,0.1c-1.7-0.2-3.3-0.6-4.9-0.8
		c-0.4-0.1-0.6-0.2-0.6-0.6c0.1-6.1,0.1-12.3,0.2-18.3c0-2.5-0.1-5-0.1-7.5c0-0.8-0.1-1.6-0.3-2.4c-0.3-1.4-1-2-2.4-2.2
		c-0.6-0.1-0.7-0.2-0.6-0.8c0-0.1,0.2-0.3,0.3-0.3c3.2-0.6,6.4-1.2,9.6-1.8C77.5,12.5,77.6,12.5,77.7,12.5z M77.6,32.9L77.6,32.9
		c0,2.2,0,4.4,0,6.5c0,1.8,0.1,3.7,0.1,5.5c0,0.2,0.1,0.6,0.3,0.6c1.5,0.3,2.9,0.2,4-0.8c0.9-0.8,1.5-1.9,1.9-3.1
		c1-2.7,1.4-5.6,1.3-8.5c-0.1-1.7-0.4-3.6-1.2-5.2c-0.5-1-1.1-2-2.2-2.6c-1.3-0.8-2.7-0.6-4.1-0.1c-0.1,0.1-0.2,0.3-0.2,0.4
		C77.6,28.2,77.6,30.5,77.6,32.9z"/>
	<path class="st0" d="M22.4,24.3c0,3.8,0,7.5,0,11.3c-0.3,0-0.8,0-1.1,0c-0.1,0-0.2-0.2-0.3-0.3c-0.3-1.2-0.6-2.3-1.4-3.2
		c-0.6-0.7-1.3-1-2.2-1c-1.2-0.1-2.3-0.1-3.5-0.2c-0.4,0-0.6,0.1-0.6,0.5c0.1,2.6,0.1,5.2,0.3,7.8c0.1,1.2,0.2,2.3,0.4,3.4
		c0.2,1.2,0.8,2.2,2,2.5c0.6,0.1,1.3,0.2,1.9,0.3c0.7,0.1,0.9,0.3,0.7,1c0,0.1-0.1,0.2-0.2,0.2c-0.1,0.1-0.3,0-0.4,0
		c-5.4,0-10.8,0-16.1,0c-0.6,0-1-0.4-0.7-1c0.1-0.1,0.3-0.2,0.4-0.3c0.5-0.1,1-0.2,1.4-0.3c1.1-0.2,1.8-0.8,2.2-1.9
		c0.5-1.2,0.6-2.4,0.6-3.6C5.9,34.5,6,29.4,6,24.3c0-2.2-0.3-4.4-0.5-6.6c-0.1-0.5-0.3-1-0.5-1.5c-0.5-1.1-1.4-1.6-2.6-1.8
		c-0.3-0.1-0.6-0.1-0.8-0.1c-0.2,0-0.6-0.1-0.6-0.1c-0.1-0.3,0-0.8,0-1.1c0-0.1,0.1-0.1,0.3-0.1s0.3,0,0.4,0c8.6,0,17.2,0,25.8,0
		c0.2,0,0.4,0,0.6,0c0,0.1,0.1,0.3,0.1,0.4c0.1,2.2,0.1,4.3,0.1,6.5c0,0.7,0.1,1.5,0.1,2.2c0,0.1-0.1,0.4-0.3,0.4
		c-1.1,0.4-1.1,0.4-1.6-0.7c-0.6-1.5-1.2-2.9-2.3-4.1c-1.3-1.5-2.8-2.2-4.7-2.3c-1.9,0-3.7,0-5.6,0c-0.3,0-0.5,0.1-0.5,0.4
		c0,0.8-0.1,1.5-0.1,2.3c-0.1,2.4-0.1,4.9-0.1,7.3c0,1,0,2.1-0.1,3.1c0,0.4,0.1,0.6,0.6,0.6c1-0.1,1.9-0.2,2.9-0.1
		c1.8,0.1,2.9-0.9,3.6-2.5c0.2-0.6,0.4-1.2,0.6-1.8c0.1-0.3,0.1-0.4,0.5-0.4C21.7,24.3,22,24.3,22.4,24.3z"/>
	<path class="st0" d="M25.3,35.3c0-3.5,0.6-6.2,2.4-8.6c1.9-2.7,4.5-4.2,7.8-4.6c2.1-0.3,4.2-0.1,6.1,0.6c2.9,1,4.9,2.9,6.1,5.7
		c1.8,4.5,1.8,9-0.5,13.3c-1.8,3.4-4.8,5.2-8.6,5.6c-2,0.2-4,0.1-5.9-0.6c-3.2-1.1-5.3-3.3-6.5-6.5C25.5,38.5,25.2,36.7,25.3,35.3z
		 M32.5,34.4c0.1,0.9,0.1,1.7,0.1,2.6c0.1,0.9,0.1,1.8,0.3,2.6c0.3,1.7,0.8,3.3,1.7,4.7c1.1,1.5,3.1,1.9,4.6,0.6
		c0.7-0.6,1.1-1.3,1.4-2.1c0.8-2.2,0.9-4.5,1-6.8c0.1-2.2,0-4.3-0.3-6.4c-0.3-1.7-0.8-3.3-1.7-4.7c-1.5-2.2-4.2-2-5.5,0.2
		c-0.3,0.6-0.6,1.2-0.8,1.8C32.6,29.6,32.5,32,32.5,34.4z"/>
	<path class="st0" d="M115.1,42.2c0.1,0.1,0.2,0.3,0.3,0.4c0.3,0.3,0.3,0.5,0,0.8c-1,1.2-2.2,2.2-3.6,2.8c-4.5,2-8.9,1.7-12.9-1.3
		c-2.4-1.8-3.6-4.3-4.1-7.2c-0.5-2.9-0.3-5.8,0.9-8.6c1.7-3.8,4.5-6.2,8.6-6.8c2.2-0.3,4.3-0.3,6.3,0.7c2.6,1.3,4,3.4,4.7,6.1
		c0.3,1.3,0.4,2.6,0.6,4c0.1,0.4-0.1,0.5-0.5,0.5c-4.4,0-8.8,0-13.2,0c-0.8,0-0.8,0-0.8,0.8c0.1,2.4,0.5,4.7,2,6.8
		c1.3,1.7,3.1,2.6,5.4,2.9C111.2,44.1,113.3,43.6,115.1,42.2z M108.9,31.6c0-0.6,0-1,0-1.5c-0.1-0.7-0.1-1.5-0.2-2.2
		c-0.2-1.2-0.4-2.4-1.1-3.3c-0.8-1.1-2.1-1.4-3.1-0.6c-0.6,0.5-1.1,1.1-1.5,1.8c-1,1.7-1.3,3.7-1.4,5.6c0,0.3,0.1,0.3,0.4,0.3
		c2-0.1,4-0.1,6-0.1C108.3,31.7,108.6,31.7,108.9,31.6z"/>
	<path class="st0" d="M118.6,38.7c0.4,0.9,0.8,1.8,1.3,2.6c0.6,1.3,1.5,2.4,2.8,3.1c1.4,0.8,2.9,1,4.4,0.5c1.4-0.5,2.2-1.6,2.3-3
		c0.2-1.3-0.3-2.4-1.4-3.2c-1-0.7-2.2-1.2-3.3-1.7c-1.4-0.6-2.8-1-4-1.9c-1.9-1.5-2.6-3.5-2.5-5.8c0.2-3.1,2.3-5.6,5.3-6.6
		c2-0.7,4-0.7,6.1-0.5c1.5,0.1,3,0.4,4.5,1c0.3,0.1,0.5,0.3,0.6,0.7c0,1.6,0.1,3.2,0.1,4.8c0,1,0,1-1,1.2c-0.1-0.3-0.3-0.7-0.4-1
		c-0.6-1.3-1.1-2.6-2.2-3.7c-1.2-1.1-2.6-1.5-4.1-1.3c-1.3,0.3-2.3,1.4-2.5,2.7c-0.2,1.5,0.3,2.6,1.5,3.6c1.3,1,2.9,1.6,4.4,2.2
		c0.8,0.3,1.7,0.8,2.4,1.2c1.8,1,3,2.6,3.2,4.7c0.2,2.2-0.2,4.2-1.7,6c-1.3,1.5-3.1,2.4-5,2.9c-1.9,0.4-4,0.3-6,0.1
		c-1.7-0.2-3.3-0.5-4.9-1c-0.3-0.1-0.5-0.3-0.5-0.7c0-1.9-0.1-3.8-0.1-5.6C117.7,38.9,117.7,38.9,118.6,38.7z"/>
	<path class="st0" d="M59.3,22.1c0,1.8,0,3.6,0,5.2c0,0,0.1,0,0.1,0.1c0.1-0.3,0.3-0.6,0.5-0.8c1-1.9,2.4-3.5,4.5-4.2
		c1.4-0.5,2.9-0.5,4.2,0.1c0.3,0.1,0.5,0.2,0.3,0.6c-0.8,1.9-1.5,4-2.2,5.9c0,0.1-0.1,0.1-0.1,0.2c-0.3-0.1-0.6-0.3-0.8-0.4
		c-1.8-0.8-3.6-1-5.5-0.2c-0.6,0.3-1,0.7-1,1.5c0,2.7-0.1,5.4-0.1,8.1c0,1.7,0.1,3.4,0.3,5.2c0.1,1.5,1,2,2.4,2.2
		c0.5,0,0.9,0.1,1.4,0.1c0.1,0.1,0.1,0.1,0.1,0.1c0,1.3,0.1,1-1,1c-4.2,0-8.4,0-12.7,0c-0.6,0-0.9-0.6-0.6-1.1
		c0.1-0.1,0.1-0.1,0.2-0.1c0.1-0.1,0.3-0.1,0.5-0.1c1.5-0.2,2.2-0.8,2.4-2.4c0.1-0.8,0.1-1.5,0.2-2.3c0.1-3.1,0.1-6.1,0.1-9.1
		c0-1.3-0.1-2.7-0.3-4c-0.2-1.8-0.8-2.3-2.6-2.5c-0.3,0-0.5-0.1-0.5-0.5c0-0.3,0.1-0.6,0.5-0.6c3.2-0.6,6.3-1.3,9.5-1.9
		C59.1,22.1,59.2,22.1,59.3,22.1z"/>
</g>
</svg>
