<?xml version="1.0" encoding="utf-8"?>
<!-- Generator: Adobe Illustrator 24.0.1, SVG Export Plug-In . SVG Version: 6.00 Build 0)  -->
<svg version="1.1" id="Calque_1" xmlns="http://www.w3.org/2000/svg" xmlns:xlink="http://www.w3.org/1999/xlink" x="0px" y="0px"
	 viewBox="0 0 137 60" style="enable-background:new 0 0 137 60;" xml:space="preserve">
<style type="text/css">
	.st0{fill:#222222;}
</style>
<g id="canon_logo">
	<path class="st0" d="M34,23.3c-3.6,2.1-7.2,4.3-10.8,6.3c-0.1-0.1-0.1-0.1-0.1-0.1c0.1-0.2,0.2-0.5,0.4-0.6
		c1.6-2.7,3.2-5.5,4.9-8.2c0.2-0.4,0.2-0.6-0.2-0.8c-3-1.7-6.1-1.8-9.2-0.5c-4.1,1.7-6.6,4.8-7.3,9.2c-0.5,3.3,0.6,6.2,2.7,8.8
		c2.5,3.1,5.8,4.3,9.7,3.9c2.4-0.3,4.7-1.1,6.5-2.7c0.7-0.6,1.3-1.4,2-2.1c0.2,0.3,0.4,0.7,0.5,1.2c0.1,0.1-0.1,0.3-0.2,0.4
		c-0.5,0.5-0.9,0.9-1.3,1.3c-3.1,2.8-6.7,4.3-11,4.7c-5.1,0.5-9.9-0.7-14.2-3.3c-2.8-1.7-4.7-4-5.2-7.3c-0.9-6,1.2-12.4,8.3-15.4
		c2.4-1,5-1.6,7.5-1.7c2.8-0.2,5.5-0.1,8.1,0.8c3.3,1.1,6.1,3,8.3,5.7C33.6,22.8,33.7,23,34,23.3z"/>
	<path class="st0" d="M72.1,43.1c-0.2,0-0.3,0.1-0.5,0.1c-2.4-0.1-4.8-0.1-7.3-0.1c-0.5,0-0.6-0.2-0.6-0.6c0-2.7-0.1-5.4-0.1-8.2
		c0-2.9-0.1-5.8-0.1-8.6c0-0.9,0-0.9-0.9-0.9c-1.3,0-2.5,0-3.8,0c0-0.1,0-0.1,0-0.1c2.5-1.5,5.1-2.8,8-3.6c0.8-0.2,1.6-0.3,2.5-0.1
		c1.3,0.4,2,1.3,2.4,2.5c0.1,0.2,0.1,0.4,0.2,0.6c0,0.1,0.1,0.1,0.1,0.1c1.6-0.7,3.1-1.4,4.7-2.1c0.7-0.3,1.5-0.7,2.2-1
		c1.2-0.5,2.4-0.2,3.5,0.2c0.4,0.2,0.9,0.6,1,1c0.3,0.9,0.7,1.8,0.7,2.7c0.1,5.9,0.1,11.8,0.2,17.8c0,0.2,0,0.3,0,0.5
		c-0.2,0-0.4,0.1-0.6,0.1c-2.4,0-4.7,0-7,0c-0.5,0-0.6-0.2-0.6-0.6c-0.1-5.1-0.1-10.1-0.2-15.2c0-0.2,0-0.3,0-0.5
		c-0.1-1.4-0.7-2-2-2c-1.2,0-2,0.8-2,2.1c0,4.6,0,9.2,0,13.7C72.1,41.5,72.1,42.3,72.1,43.1z"/>
	<path class="st0" d="M127.8,43.4c0-0.2-0.1-0.3-0.1-0.5c-0.1-5.3-0.2-10.6-0.2-15.9c0-1.2-0.5-1.8-1.6-2c-1.2-0.1-2.1,0.5-2.3,1.6
		c-0.1,0.3-0.1,0.6-0.1,0.9c0,5,0,9.9,0,14.9c0,0.2,0,0.5,0,0.7c-2.8,0-5.5,0-8.2,0c0-0.3,0-0.5,0-0.7c-0.1-5.6-0.1-11.2-0.1-16.9
		c0-0.6-0.2-0.7-0.7-0.7c-1.3,0.1-2.7,0-4,0c0-0.1,0-0.1,0-0.1c2.5-1.5,5.1-2.9,8-3.7c2.6-0.7,4.1,0.2,5,2.8
		c0.1,0.1,0.1,0.2,0.1,0.3c0.2-0.1,0.5-0.2,0.6-0.3c1.8-0.9,3.7-1.7,5.5-2.5c1.3-0.6,2.7-0.7,4.1-0.2c0.5,0.2,1,0.7,1.3,1.2
		c0.6,0.8,0.7,1.8,0.7,2.8c0.1,5.9,0.1,11.8,0.1,17.7c0,0.2,0.1,0.6-0.3,0.6C133,43.4,130.5,43.4,127.8,43.4z"/>
	<path class="st0" d="M49.7,31.1c-0.1-0.3-0.1-0.5-0.1-0.6c-0.5-1.7-1-3.3-1.4-5.1c-0.1-0.4-0.3-0.6-0.7-0.6
		c-2.7-0.1-5.4-0.1-8.2-0.2c-0.4,0-0.8-0.1-1.3-0.1c0.2-0.1,0.3-0.2,0.4-0.2c3.1-1.2,6.1-2.3,9.2-3.5c1.3-0.5,2.6-0.4,3.9,0
		c2.4,0.7,4.3,2,5.1,4.4c0.5,1.3,0.7,2.7,1.1,4.1c1.2,4.4,2.3,8.8,3.5,13.2c0.1,0.2,0.1,0.3,0.1,0.6c-0.3,0-0.7,0.1-1,0.1
		c-2.1,0-4.2,0.1-6.3,0.1c-0.3,0-0.5-0.1-0.6-0.5c-0.3-1.1-0.6-2.2-1-3.3c-0.2,0.2-0.3,0.2-0.3,0.3c-2.1,2.4-4.8,3.5-7.9,3.8
		c-1.4,0.1-2.9,0.1-4.3-0.4c-2.9-1-4.5-3.2-5.2-6.1c-0.3-1.5-0.1-2.9,0.8-4.1c2-3,4.9-4.2,8.4-3.9C45.7,29.4,47.8,29.9,49.7,31.1z
		 M42.6,36.4c0,2.4,1.9,4.3,4.3,4.3c2.4,0,4.3-1.9,4.3-4.3c0-2.4-1.9-4.3-4.3-4.3C44.5,32.1,42.6,34,42.6,36.4z"/>
	<path class="st0" d="M98.8,20.8c6.3,0,11.5,5.1,11.5,11.5c0,6.4-5.1,11.5-11.5,11.5c-6.3,0-11.5-5.2-11.5-11.5
		C87.3,26,92.4,20.8,98.8,20.8z M97.1,22.4c-1.3,0-2.2,0.6-2.5,1.8c-0.1,0.6-0.1,1.4,0.1,2.1c1.2,4.4,2.4,8.8,3.6,13.3
		c0.2,0.6,0.5,1.2,0.8,1.7c0.7,1.1,2,1.3,3.2,0.7c1.1-0.6,1.4-1.6,1.1-2.8c-0.1-0.2-0.1-0.3-0.1-0.5c-1.3-4.8-2.7-9.6-3.9-14.4
		C99,23.2,97.9,22.4,97.1,22.4z"/>
</g>
</svg>
