<?xml version="1.0" encoding="utf-8"?>
<!-- Generator: Adobe Illustrator 24.0.1, SVG Export Plug-In . SVG Version: 6.00 Build 0)  -->
<svg version="1.1" id="Calque_1" xmlns="http://www.w3.org/2000/svg" xmlns:xlink="http://www.w3.org/1999/xlink" x="0px" y="0px"
	 viewBox="0 0 137 60" style="enable-background:new 0 0 137 60;" xml:space="preserve">
<style type="text/css">
	.st0{fill:#222222;}
</style>
<g id="GQ_logo">
	<path class="st0" d="M64.9,30.1c0,3-0.5,5.8-1.3,8.5C60,49.8,49.4,57.9,36.8,57.9c-15.5,0-28.1-12.4-28.1-27.8
		c0-15.3,12.6-27.8,28.1-27.8c12.7,0,23.4,8.3,26.9,19.6H46.8c-2.4-2.8-5.9-4.5-9.9-4.5C29.8,17.4,24,23,24,30
		c0,6.9,5.8,12.6,12.9,12.6c3.7,0,7.1-1.5,9.4-4h-8.2c0-0.3,0-12.6,0-12.6h26.5C64.8,27.3,64.9,28.7,64.9,30.1z"/>
	<path class="st0" d="M115.8,45.5c3-4.4,4.7-9.7,4.7-15.4c0-15.3-12.6-27.8-28.1-27.8S64.3,14.7,64.3,30.1
		c0,15.3,12.6,27.8,28.1,27.8c4.6,0,9-1.1,12.8-3l1.2,1.6h17.2L115.8,45.5z M93,42.8c-7.4,0-13.4-5.6-13.4-12.5s6-12.5,13.4-12.5
		s13.4,5.6,13.4,12.5c0,0.7-0.1,1.4-0.2,2c-0.1,0.7-0.3,1.4-0.6,2.1l-1.5-2.1H86.7l7.4,10.4C93.8,42.7,93.4,42.8,93,42.8z"/>
</g>
</svg>
