<?xml version="1.0" encoding="utf-8"?>
<!-- Generator: Adobe Illustrator 24.0.1, SVG Export Plug-In . SVG Version: 6.00 Build 0)  -->
<svg version="1.1" id="Calque_1" xmlns="http://www.w3.org/2000/svg" xmlns:xlink="http://www.w3.org/1999/xlink" x="0px" y="0px"
	 viewBox="0 0 137 60" style="enable-background:new 0 0 137 60;" xml:space="preserve">
<style type="text/css">
	.st0{fill:#222222;}
</style>
<g id="vogue_logo">
	<path class="st0" d="M135.9,46.5c-0.2,0-0.5,0-0.7,0c-7.5,0-15,0-22.5,0c-0.2,0-0.4-0.1-0.7-0.1c0.2-0.1,0.5-0.2,0.7-0.2
		c0.6,0,1.3,0,2,0c0-10.9,0-21.6,0-32.4c-2,0-3.9,0-5.9,0c0,0.3,0,0.5,0,0.8c0,8.3,0,16.6,0,24.9c0,3.2-1.7,5.3-4.5,6.6
		c-2,0.9-4.2,1.2-6.4,1c-2.5-0.2-4.9-0.8-7-2.4c-1.8-1.3-2.8-3.1-3-5.3c-0.1-0.6-0.1-1.2-0.1-1.8c0-7.7,0-15.3,0-23
		c0-0.2,0-0.4,0-0.7c-1,0-1.9,0-2.8,0c-0.1,0-0.3-0.1-0.4-0.1c0-0.1,0-0.1,0.1-0.2c0.2,0,0.4,0,0.6,0c3.6,0,7.2,0,10.8,0
		c0.1,0,0.2,0,0.3,0c0.1,0.1,0.2,0.1,0.3,0.2c-0.1,0.1-0.2,0.1-0.3,0.1c-0.7,0-1.5,0-2.2,0c-0.2,0-0.4,0-0.7,0c0,0.3,0,0.5,0,0.8
		c0,8.2,0,16.5,0,24.7c0,2.3,1,4,2.8,5.3c1.6,1.1,3.3,1.6,5.2,1.6c3.1-0.1,5.9-1.8,6.8-4.9c0.1-0.5,0.3-1.1,0.3-1.6
		c0-8.4,0-16.8,0-25.2c0-0.1,0-0.4,0-0.6c-1.1,0-2.2,0-3.2,0c-0.1,0-0.4-0.1-0.5-0.1c0-0.1,0-0.1,0.1-0.2c10.2,0,20.4,0,30.6,0
		c0,3.9,0,7.9,0,11.8h-0.1c-0.1-0.7-0.2-1.5-0.4-2.2c-0.4-2.3-1.1-4.6-2.7-6.5c-1.1-1.3-2.5-2.1-4.1-2.5c-2.5-0.6-5.1-0.3-7.7-0.4
		c0,5.1,0,10.3,0,15.4c1.5,0.1,2.9,0.3,4.3-0.3c1.3-0.5,2.2-1.5,2.6-2.8c0.3-0.9,0.4-1.9,0.6-2.8c0-0.1,0-0.2,0.1-0.4
		c0,0,0.1-0.1,0.1-0.1c0,4.5,0,9,0,13.4c-0.1,0-0.1,0-0.1,0c-0.1-0.5-0.2-1-0.4-1.5c-0.3-1.3-0.8-2.5-1.7-3.5
		c-0.8-1-1.9-1.6-3.2-1.7c-0.6-0.1-1.3,0-1.8,0c-0.4,0-0.6,0.1-0.6,0.5c0,5.2,0,10.4,0,15.7c0,0.1,0,0.1,0,0.3c0.2,0,0.4,0,0.6,0
		c1.5,0,3,0,4.4,0c2.4,0.1,4.4-0.8,6.2-2.3c1.9-1.5,3.1-3.5,3.7-5.8c0.3-1.3,0.4-2.6,0.5-3.9c0-0.1,0.1-0.2,0.2-0.4
		C135.9,38.1,135.9,42.3,135.9,46.5z"/>
	<path class="st0" d="M70.8,12.8c1.1-0.2,2.2-0.1,3.3,0.2c0.8,0.3,1.5,0.5,2.3,0.7c1.3,0.4,2.6,0.4,3.8-0.6c0.3-0.2,0.5-0.4,0.8-0.6
		c0,3.9,0,7.8,0,11.6c-0.1,0-0.1,0-0.1,0c-0.2-0.7-0.4-1.3-0.6-2c-0.8-2.9-2.2-5.4-4.3-7.5c-1.3-1.3-2.9-2.1-4.9-2
		c-1.6,0.1-2.9,0.9-3.9,2.2c-1.3,1.8-2,3.8-2.5,6c-0.3,1.6-0.6,3.1-0.6,4.7c-0.1,2.3-0.3,4.5-0.2,6.8c0.1,3.6,0.6,7.2,2,10.6
		c0.6,1.3,1.2,2.5,2.5,3.2c1.1,0.6,2.3,0.8,3.5,0.7c1.5-0.1,2.8-0.6,4-1.6s1.8-2,1.8-3.5c-0.1-2.7,0-5.4,0-8c0-0.2,0-0.4,0-0.7
		c-1.1,0-2,0-3,0c0-0.1,0-0.1,0-0.1c3.7,0,7.3,0,11,0c-0.8,0.3-1.7,0.1-2.5,0.2c0,4.5,0,9,0,13.5c-0.2-0.2-0.3-0.3-0.4-0.4
		c-1-1.3-2.5-1.9-4-1.3c-1.1,0.4-2.1,0.9-3.1,1.3c-4.8,2-9.7,0.8-13.1-3c-2.5-2.8-3.9-6.1-4.3-9.9c-0.2-1.6-0.3-3.1-0.2-4.6
		c0.1-2.4,0.7-4.7,1.7-6.9c1-2.2,2.3-4.2,4.1-5.7c1.9-1.7,4.1-3,6.7-3.3C70.6,12.9,70.7,12.8,70.8,12.8z"/>
	<path class="st0" d="M55.1,30.1c-0.1,3.8-1,7.3-3.1,10.5c-2,3.1-4.8,5.5-8.5,6.4c-3.9,1-7.5,0-10.6-2.5c-3.5-2.8-5.4-6.6-6.2-10.9
		c-0.8-4.6-0.2-9.1,2.1-13.3c2-3.7,4.9-6.3,9.1-7.4c3.9-1,7.3,0,10.4,2.4c3.7,2.9,5.6,6.8,6.3,11.3C54.9,27.9,55,29,55.1,30.1z
		 M48.9,30.1c0-0.8,0.1-1.6,0-2.5c-0.2-2.4-0.6-4.7-1.3-7c-0.6-2-1.5-4.1-3-5.6c-1.5-1.6-3.2-2.2-5.3-1.6c-1.6,0.4-2.6,1.4-3.5,2.7
		c-1.1,1.7-1.8,3.5-2.3,5.5c-0.8,3.4-1.3,6.8-1.1,10.4c0.1,2.3,0.5,4.5,1.1,6.7c0.7,2.6,1.6,5.1,3.6,7c1.7,1.6,4.3,2,6.3,0.6
		c1.7-1.1,2.7-2.8,3.5-4.7C48.4,37.9,48.9,34,48.9,30.1z"/>
	<path class="st0" d="M10,13.7c3,8.1,5.9,16.1,8.9,24.3c2.5-8.2,5-16.1,7.5-24.3c-0.8,0-1.7,0-2.5,0c-0.1,0-0.3-0.1-0.4-0.2
		c0.1-0.1,0.3-0.1,0.4-0.1c1.8,0,3.7,0,5.6,0c0.1,0,0.3,0.1,0.4,0.1c-0.1,0.1-0.3,0.2-0.4,0.2c-0.6,0-1.3,0-2,0
		c-0.4,0-0.5,0.1-0.6,0.4c-0.8,2.8-1.8,5.6-2.7,8.5c-0.6,1.9-1.2,3.7-1.8,5.6c-1.4,4.4-2.8,8.9-4.2,13.3c-0.6,1.8-1.1,3.5-1.7,5.3
		c0,0.1-0.1,0.1-0.1,0.3c-0.4-1.1-0.8-2-1.1-3c-1.8-4.7-3.5-9.4-5.2-14.1c-1.7-4.7-3.5-9.4-5.1-14.1c-0.2-0.6-0.4-1.2-0.7-1.8
		c-0.1-0.1-0.3-0.4-0.5-0.4c-0.8,0-1.6,0-2.4,0c-0.1,0-0.2-0.1-0.4-0.1c0.1-0.1,0.3-0.2,0.4-0.2c3.7,0,7.4,0,11.1,0
		c0.1,0,0.2,0.1,0.4,0.1c-0.1,0.1-0.3,0.2-0.4,0.2C11.7,13.7,10.9,13.7,10,13.7z"/>
</g>
</svg>
